<svg xmlns="http://www.w3.org/2000/svg" width="495" height="355" viewBox="0 0 495 355">
    <rect width="495" height="355" fill="#0D1117" rx="10" ry="10" />
    <text x="25" y="45" font-family="Segoe UI,Tahoma,Geneva,Verdana,sans-serif" font-size="20" font-weight="bold" fill="#58A6FF">Top Languages</text>
    <g>
      <text x="25" y="95" font-family="Segoe UI,Tahoma,Geneva,Verdana,sans-serif" font-size="14" fill="#C3D1D9">C#</text><rect x="155" y="85" width="117.80725778842863" height="12" fill="#8be9fd" rx="6" ry="6" /><text x="282.8072577884286" y="95" font-family="Segoe UI,Tahoma,Geneva,Verdana,sans-serif" font-size="14" fill="#C3D1D9">37.40%</text><text x="25" y="120" font-family="Segoe UI,Tahoma,Geneva,Verdana,sans-serif" font-size="14" fill="#C3D1D9">PowerShell</text><rect x="155" y="110" width="97.52054091064703" height="12" fill="#ff79c6" rx="6" ry="6" /><text x="262.520540910647" y="120" font-family="Segoe UI,Tahoma,Geneva,Verdana,sans-serif" font-size="14" fill="#C3D1D9">30.96%</text><text x="25" y="145" font-family="Segoe UI,Tahoma,Geneva,Verdana,sans-serif" font-size="14" fill="#C3D1D9">JavaScript</text><rect x="155" y="135" width="35.91321465251626" height="12" fill="#ffb86c" rx="6" ry="6" /><text x="200.91321465251627" y="145" font-family="Segoe UI,Tahoma,Geneva,Verdana,sans-serif" font-size="14" fill="#C3D1D9">11.40%</text><text x="25" y="170" font-family="Segoe UI,Tahoma,Geneva,Verdana,sans-serif" font-size="14" fill="#C3D1D9">Python</text><rect x="155" y="160" width="22.99041424169805" height="12" fill="#50fa7b" rx="6" ry="6" /><text x="187.99041424169806" y="170" font-family="Segoe UI,Tahoma,Geneva,Verdana,sans-serif" font-size="14" fill="#C3D1D9">7.30%</text><text x="25" y="195" font-family="Segoe UI,Tahoma,Geneva,Verdana,sans-serif" font-size="14" fill="#C3D1D9">HTML</text><rect x="155" y="185" width="19.891304347826086" height="12" fill="#bd93f9" rx="6" ry="6" /><text x="184.8913043478261" y="195" font-family="Segoe UI,Tahoma,Geneva,Verdana,sans-serif" font-size="14" fill="#C3D1D9">6.31%</text><text x="25" y="220" font-family="Segoe UI,Tahoma,Geneva,Verdana,sans-serif" font-size="14" fill="#C3D1D9">Shell</text><rect x="155" y="210" width="10.16004792879151" height="12" fill="#f1fa8c" rx="6" ry="6" /><text x="175.1600479287915" y="220" font-family="Segoe UI,Tahoma,Geneva,Verdana,sans-serif" font-size="14" fill="#C3D1D9">3.23%</text><text x="25" y="245" font-family="Segoe UI,Tahoma,Geneva,Verdana,sans-serif" font-size="14" fill="#C3D1D9">CSS</text><rect x="155" y="235" width="3.841150290996234" height="12" fill="#ff5555" rx="6" ry="6" /><text x="168.84115029099624" y="245" font-family="Segoe UI,Tahoma,Geneva,Verdana,sans-serif" font-size="14" fill="#C3D1D9">1.22%</text><text x="25" y="270" font-family="Segoe UI,Tahoma,Geneva,Verdana,sans-serif" font-size="14" fill="#C3D1D9">Inno Setup</text><rect x="155" y="260" width="2.5958575830195136" height="12" fill="#6272a4" rx="6" ry="6" /><text x="167.59585758301952" y="270" font-family="Segoe UI,Tahoma,Geneva,Verdana,sans-serif" font-size="14" fill="#C3D1D9">0.82%</text><text x="25" y="295" font-family="Segoe UI,Tahoma,Geneva,Verdana,sans-serif" font-size="14" fill="#C3D1D9">Dockerfile</text><rect x="155" y="285" width="2.2620677850051356" height="12" fill="#8be9fd80" rx="6" ry="6" /><text x="167.26206778500514" y="295" font-family="Segoe UI,Tahoma,Geneva,Verdana,sans-serif" font-size="14" fill="#C3D1D9">0.72%</text><text x="25" y="320" font-family="Segoe UI,Tahoma,Geneva,Verdana,sans-serif" font-size="14" fill="#C3D1D9">Ruby</text><rect x="155" y="310" width="1.6817870592262925" height="12" fill="#ff9ff3" rx="6" ry="6" /><text x="166.68178705922628" y="320" font-family="Segoe UI,Tahoma,Geneva,Verdana,sans-serif" font-size="14" fill="#C3D1D9">0.53%</text>
    </g>
  </svg>