<svg xmlns="http://www.w3.org/2000/svg" width="495" height="255" viewBox="0 0 495 255">
    <rect width="495" height="255" fill="#0D1117" rx="10" ry="10" />
    <text x="25" y="45" font-family="Segoe UI,Tahoma,Geneva,Verdana,sans-serif" font-size="20" font-weight="bold" fill="#58A6FF">Top Languages</text>
    <g>
      <text x="25" y="95" font-family="Segoe UI,Tahoma,Geneva,Verdana,sans-serif" font-size="14" fill="#C3D1D9">C#</text><rect x="155" y="85" width="135.98440013925088" height="12" fill="#8be9fd" rx="6" ry="6" /><text x="300.98440013925085" y="95" font-family="Segoe UI,Tahoma,Geneva,Verdana,sans-serif" font-size="14" fill="#C3D1D9">43.17%</text><text x="25" y="120" font-family="Segoe UI,Tahoma,Geneva,Verdana,sans-serif" font-size="14" fill="#C3D1D9">PowerShell</text><rect x="155" y="110" width="112.56753196654216" height="12" fill="#ff79c6" rx="6" ry="6" /><text x="277.56753196654216" y="120" font-family="Segoe UI,Tahoma,Geneva,Verdana,sans-serif" font-size="14" fill="#C3D1D9">35.74%</text><text x="25" y="145" font-family="Segoe UI,Tahoma,Geneva,Verdana,sans-serif" font-size="14" fill="#C3D1D9">HTML</text><rect x="155" y="135" width="17.859770612421553" height="12" fill="#ffb86c" rx="6" ry="6" /><text x="182.85977061242156" y="145" font-family="Segoe UI,Tahoma,Geneva,Verdana,sans-serif" font-size="14" fill="#C3D1D9">5.67%</text><text x="25" y="170" font-family="Segoe UI,Tahoma,Geneva,Verdana,sans-serif" font-size="14" fill="#C3D1D9">Python</text><rect x="155" y="160" width="15.657678085865095" height="12" fill="#50fa7b" rx="6" ry="6" /><text x="180.6576780858651" y="170" font-family="Segoe UI,Tahoma,Geneva,Verdana,sans-serif" font-size="14" fill="#C3D1D9">4.97%</text><text x="25" y="195" font-family="Segoe UI,Tahoma,Geneva,Verdana,sans-serif" font-size="14" fill="#C3D1D9">JavaScript</text><rect x="155" y="185" width="14.282481676279367" height="12" fill="#bd93f9" rx="6" ry="6" /><text x="179.28248167627936" y="195" font-family="Segoe UI,Tahoma,Geneva,Verdana,sans-serif" font-size="14" fill="#C3D1D9">4.53%</text><text x="25" y="220" font-family="Segoe UI,Tahoma,Geneva,Verdana,sans-serif" font-size="14" fill="#C3D1D9">Shell</text><rect x="155" y="210" width="11.727698691230017" height="12" fill="#ff5555" rx="6" ry="6" /><text x="176.72769869123002" y="220" font-family="Segoe UI,Tahoma,Geneva,Verdana,sans-serif" font-size="14" fill="#C3D1D9">3.72%</text>
    </g>
  </svg>